HIERARCHY
ROOT joint_Root
{
	OFFSET 0.0 0.0 0.0
	CHANNELS 6 Xposition Yposition Zposition Zrotation Xrotation Yrotation 
	JOINT Hips
	{
		OFFSET 4.5925 91.4895 -427.239
		CHANNELS 6 Xposition Yposition Zposition Zrotation Xrotation Yrotation 
		JOINT Spine
		{
			OFFSET 15.7357 0.0 0.0
			CHANNELS 6 Xposition Yposition Zposition Zrotation Xrotation Yrotation 
			JOINT Chest
			{
				OFFSET 8.98455 -0.406207 0.0
				CHANNELS 6 Xposition Yposition Zposition Zrotation Xrotation Yrotation 
				JOINT Neck
				{
					OFFSET 16.3773 0.0 0.0
					CHANNELS 6 Xposition Yposition Zposition Zrotation Xrotation Yrotation 
					JOINT Head
					{
						OFFSET 6.45672 0.0 0.0
						CHANNELS 6 Xposition Yposition Zposition Zrotation Xrotation Yrotation 
						End Site
						{
							OFFSET 0.0 0.0 0.0
						}
					}
				}
				JOINT Shoulder_L
				{
					OFFSET 12.9942 -0.242716 4.98039
					CHANNELS 6 Xposition Yposition Zposition Zrotation Xrotation Yrotation 
					JOINT UpperArm_L
					{
						OFFSET 5.34809 0.0 0.0
						CHANNELS 6 Xposition Yposition Zposition Zrotation Xrotation Yrotation 
						JOINT LowerArm_L
						{
							OFFSET 24.3286 1.87007e-05 0.0
							CHANNELS 6 Xposition Yposition Zposition Zrotation Xrotation Yrotation 
							JOINT Hand_L
							{
								OFFSET 22.2916 0.0 0.0
								CHANNELS 6 Xposition Yposition Zposition Zrotation Xrotation Yrotation 
								End Site
								{
									OFFSET 0.0 0.0 0.0
								}
							}
						}
					}
				}
				JOINT Shoulder_R
				{
					OFFSET 12.9945 -0.242716 -4.98039
					CHANNELS 6 Xposition Yposition Zposition Zrotation Xrotation Yrotation 
					JOINT UpperArm_R
					{
						OFFSET -5.34813 0.0 0.0
						CHANNELS 6 Xposition Yposition Zposition Zrotation Xrotation Yrotation 
						JOINT LowerArm_R
						{
							OFFSET -24.3289 0.000322201 0.0
							CHANNELS 6 Xposition Yposition Zposition Zrotation Xrotation Yrotation 
							JOINT Hand_R
							{
								OFFSET -22.2915 -0.000108084 0.0
								CHANNELS 6 Xposition Yposition Zposition Zrotation Xrotation Yrotation 
								End Site
								{
									OFFSET 0.0 0.0 0.0
								}
							}
						}
					}
				}
			}
		}
		JOINT UpperLeg_L
		{
			OFFSET -2.19248 -6.46944 0.0
			CHANNELS 6 Xposition Yposition Zposition Zrotation Xrotation Yrotation 
			JOINT LowerLeg_L
			{
				OFFSET 39.0811 0.0 -1.23785e-05
				CHANNELS 6 Xposition Yposition Zposition Zrotation Xrotation Yrotation 
				JOINT Foot_L
				{
					OFFSET 40.9854 0.0 -1.26872e-05
					CHANNELS 6 Xposition Yposition Zposition Zrotation Xrotation Yrotation 
					JOINT Toes_L
					{
						OFFSET 11.7543 0.0 0.0
						CHANNELS 6 Xposition Yposition Zposition Zrotation Xrotation Yrotation 
						End Site
						{
							OFFSET 0.0 0.0 0.0
						}
					}
				}
			}
		}
		JOINT UpperLeg_R
		{
			OFFSET -2.19251 6.46944 0.0
			CHANNELS 6 Xposition Yposition Zposition Zrotation Xrotation Yrotation 
			JOINT LowerLeg_R
			{
				OFFSET -39.0811 -0.00228153 -0.0401928
				CHANNELS 6 Xposition Yposition Zposition Zrotation Xrotation Yrotation 
				JOINT Foot_R
				{
					OFFSET -40.9854 0.0 0.0
					CHANNELS 6 Xposition Yposition Zposition Zrotation Xrotation Yrotation 
					JOINT Toes_R
					{
						OFFSET -11.7543 0.0 0.0
						CHANNELS 6 Xposition Yposition Zposition Zrotation Xrotation Yrotation 
						End Site
						{
							OFFSET 0.0 0.0 0.0
						}
					}
				}
			}
		}
	}
}
MOTION
Frames:	4
Frame Time:	0.0333333
0.000000 0.000000 0.000000 0.000000 0.000000 -0.000000 -0.541538 79.684700 -1.597680 88.984500 8.914140 10.210800 15.735700 0.000005 -0.000001 96.709200 78.688900 -98.691300 8.984550 -0.406207 -0.000000 14.758100 2.488820 -4.289590 16.377300 -0.000001 -0.000001 -2.165920 -10.310100 2.802640 6.456720 -0.000001 -0.000000 -6.618120 -16.885200 9.628310 12.994200 -0.242716 4.980390 -92.650700 6.804340 -68.656700 5.348090 -0.000007 -0.000001 -69.019700 10.011600 0.597244 24.328600 0.000019 0.000005 1.766290 2.894970 -31.406200 22.291600 -0.000001 0.000005 23.160800 5.216810 2.294240 12.994500 -0.242716 -4.980390 88.530300 8.283090 -79.902200 -5.348130 -0.000001 -0.000004 -65.188800 27.992800 -5.894560 -24.328900 0.000322 -0.000009 -1.079610 -2.540240 -23.011900 -22.291500 -0.000108 -0.000004 17.289800 5.416140 -3.468470 -2.192480 -6.469440 -0.000000 -172.907000 -17.647100 -21.941300 39.081100 -0.000007 -0.000012 0.263317 -0.098484 69.492600 40.985400 -0.000006 -0.000013 11.890100 18.683900 -89.190600 11.754300 -0.000000 0.000003 -0.000003 -0.000043 -16.579200 -2.192510 6.469440 -0.000001 176.249000 20.014600 160.307000 -39.081100 -0.002282 -0.040193 0.179178 -0.065986 69.454200 -40.985400 0.000008 0.000006 3.908940 -1.241840 -87.677800 -11.754300 -0.000006 -0.000006 -1.340470 -1.671940 -17.064100
0.000000 0.000000 0.000000 0.000000 0.000000 -0.000000 0.298682 80.877500 -1.560030 89.517900 5.696580 9.621910 15.735700 0.000005 -0.000001 96.339500 79.162200 -97.889600 8.984550 -0.406207 -0.000000 13.818200 2.284830 -3.378360 16.377300 -0.000001 -0.000001 -2.488010 -9.386960 2.748810 6.456720 -0.000001 -0.000000 -6.462240 -15.156200 8.019440 12.994200 -0.242716 4.980390 -92.481800 6.133210 -67.918300 5.348090 -0.000007 -0.000001 -68.819800 5.257760 3.555490 24.328600 0.000019 0.000005 1.893320 3.101010 -31.428200 22.291600 -0.000001 0.000005 25.574200 5.235680 1.809470 12.994500 -0.242716 -4.980390 88.564600 8.145850 -79.970900 -5.348130 -0.000001 -0.000004 -64.381600 27.966200 -7.412130 -24.328900 0.000322 -0.000009 -0.253781 -0.645959 -21.360200 -22.291500 -0.000108 -0.000004 16.399600 5.400700 -2.959890 -2.192480 -6.469440 -0.000000 -173.876000 -19.555400 -20.164300 39.081100 -0.000007 -0.000012 0.199762 -0.087798 66.272700 40.985400 -0.000006 -0.000013 11.172300 17.361700 -87.851200 11.754300 -0.000000 0.000003 -0.000006 -0.000087 -16.580900 -2.192510 6.469440 -0.000001 175.841000 16.932200 160.739000 -39.081100 -0.002282 -0.040193 0.147506 -0.062511 66.585700 -40.985400 0.000008 0.000006 3.637500 -0.523366 -85.958800 -11.754300 -0.000006 -0.000006 -1.205380 -1.498000 -17.062500
0.000000 0.000000 0.000000 0.000000 0.000000 -0.000000 1.189400 82.975400 -1.519210 89.992800 2.232240 8.496700 15.735700 0.000005 -0.000001 96.473700 80.001400 -97.286300 8.984550 -0.406207 -0.000000 12.126500 2.203760 -1.859160 16.377300 -0.000001 -0.000001 -2.030820 -7.909480 2.033690 6.456720 -0.000001 -0.000000 -6.449770 -12.611600 4.791800 12.994200 -0.242716 4.980390 -91.844800 4.363690 -67.055300 5.348090 -0.000007 -0.000001 -65.316900 -0.026461 2.283070 24.328600 0.000019 0.000005 5.755970 9.687380 -30.923700 22.291600 -0.000001 0.000005 25.045700 5.246550 1.523710 12.994500 -0.242716 -4.980390 88.650800 7.504270 -79.777200 -5.348130 -0.000001 -0.000004 -64.580500 26.673300 -7.392340 -24.328900 0.000322 -0.000009 0.039460 0.101603 -21.756300 -22.291500 -0.000108 -0.000004 16.377000 5.402800 -3.028660 -2.192480 -6.469440 -0.000000 -175.216000 -21.109200 -17.801400 39.081100 -0.000007 -0.000012 0.113551 -0.064586 60.367600 40.985400 -0.000006 -0.000013 9.895730 15.784100 -85.068000 11.754300 -0.000000 0.000003 -0.000011 -0.000148 -16.583300 -2.192510 6.469440 -0.000001 175.346000 14.735400 161.817000 -39.081100 -0.002282 -0.040193 0.110787 -0.059325 61.128700 -40.985400 0.000008 0.000006 3.765000 1.179450 -82.802400 -11.754300 -0.000006 -0.000006 -1.081000 -1.335810 -17.189700
0.000000 0.000000 0.000000 0.000000 0.000000 -0.000000 1.992420 85.436300 -1.407220 90.490200 -1.114020 7.201180 15.735700 0.000005 -0.000001 96.901200 80.991200 -96.876000 8.984550 -0.406207 -0.000000 10.125800 2.151520 -0.140356 16.377300 -0.000001 -0.000001 -0.768397 -6.318520 1.007740 6.456720 -0.000001 -0.000000 -6.381790 -9.549060 0.423226 12.994200 -0.242716 4.980390 -91.088700 2.553050 -66.895500 5.348090 -0.000007 -0.000001 -57.628400 -9.213570 -1.555900 24.328600 0.000019 0.000005 7.904700 12.696900 -32.281600 22.291600 -0.000001 0.000005 24.582900 5.248170 1.480980 12.994500 -0.242716 -4.980390 88.744100 6.672640 -79.315700 -5.348130 -0.000001 -0.000004 -64.685500 26.513500 -6.862800 -24.328900 0.000322 -0.000009 -0.461612 -1.083390 -23.028400 -22.291500 -0.000108 -0.000004 16.658800 5.412790 -3.358060 -2.192480 -6.469440 -0.000000 -176.697000 -22.304800 -14.909500 39.081100 -0.000007 -0.000012 0.026417 -0.020136 52.678100 40.985400 -0.000006 -0.000013 8.413940 14.226500 -81.366400 11.754300 -0.000000 0.000003 -0.000018 -0.000226 -16.586400 -2.192510 6.469440 -0.000001 174.657000 13.768100 163.565000 -39.081100 -0.002282 -0.040193 0.079002 -0.054964 54.042800 -40.985400 0.000008 0.000006 4.099930 3.863050 -78.892800 -11.754300 -0.000006 -0.000006 -0.796333 -0.974873 -17.515400
